<?xml version="1.0" encoding="UTF-8"?>
<!DOCTYPE svg PUBLIC "-//W3C//DTD SVG 1.1//EN" "http://www.w3.org/Graphics/SVG/1.1/DTD/svg11.dtd">
<!-- Creator: CorelDRAW -->
<svg xmlns="http://www.w3.org/2000/svg" xml:space="preserve" width="1033px" height="1033px" version="1.1" style="shape-rendering:geometricPrecision; text-rendering:geometricPrecision; image-rendering:optimizeQuality; fill-rule:evenodd; clip-rule:evenodd"
viewBox="0 0 1120.4 1120.4"
 xmlns:xlink="http://www.w3.org/1999/xlink"
 xmlns:xodm="http://www.corel.com/coreldraw/odm/2003">
 <defs>
  <style type="text/css">
   <![CDATA[
    .str0 {stroke:#7A0202;stroke-width:45.2;stroke-miterlimit:22.9256}
    .fil13 {fill:none}
    .fil9 {fill:#006633}
    .fil10 {fill:#00CCFF}
    .fil4 {fill:#062A49}
    .fil11 {fill:indigo}
    .fil3 {fill:#7C90A3}
    .fil12 {fill:#8F00FF}
    .fil2 {fill:#A27715}
    .fil1 {fill:#BC8A16}
    .fil6 {fill:red}
    .fil7 {fill:#FF6600}
    .fil8 {fill:yellow}
    .fil0 {fill:white}
    .fil5 {fill:#062A49;fill-rule:nonzero}
    .fil14 {fill:white;fill-rule:nonzero}
   ]]>
  </style>
     <clipPath id="id0">
      <path d="M560.2 237.91c178,0 322.29,144.3 322.29,322.29 0,178 -144.29,322.29 -322.29,322.29 -177.99,0 -322.29,-144.29 -322.29,-322.29 0,-177.99 144.3,-322.29 322.29,-322.29z"/>
     </clipPath>
        <mask id="id1">
  <linearGradient id="id2" gradientUnits="userSpaceOnUse" x1="560.58" y1="365.81" x2="565.42" y2="537.2">
   <stop offset="0" style="stop-opacity:1; stop-color:white"/>
   <stop offset="1" style="stop-opacity:0; stop-color:white"/>
  </linearGradient>
         <rect style="fill:url(#id2)" x="239.73" y="238.91" width="643.56" height="312.17"/>
        </mask>
        <mask id="id3">
  <linearGradient id="id4" gradientUnits="userSpaceOnUse" x1="560.58" y1="365.81" x2="565.42" y2="537.2">
   <stop offset="0" style="stop-opacity:1; stop-color:white"/>
   <stop offset="1" style="stop-opacity:0; stop-color:white"/>
  </linearGradient>
         <rect style="fill:url(#id4)" x="259.81" y="258.33" width="603.41" height="291.93"/>
        </mask>
        <mask id="id5">
  <linearGradient id="id6" gradientUnits="userSpaceOnUse" x1="560.58" y1="365.81" x2="565.42" y2="537.2">
   <stop offset="0" style="stop-opacity:1; stop-color:white"/>
   <stop offset="1" style="stop-opacity:0; stop-color:white"/>
  </linearGradient>
         <rect style="fill:url(#id6)" x="278.11" y="276.33" width="569.74" height="274.81"/>
        </mask>
        <mask id="id7">
  <linearGradient id="id8" gradientUnits="userSpaceOnUse" x1="560.58" y1="365.81" x2="565.42" y2="537.2">
   <stop offset="0" style="stop-opacity:1; stop-color:white"/>
   <stop offset="1" style="stop-opacity:0; stop-color:white"/>
  </linearGradient>
         <rect style="fill:url(#id8)" x="295.12" y="293.66" width="533.43" height="257.91"/>
        </mask>
        <mask id="id9">
  <linearGradient id="id10" gradientUnits="userSpaceOnUse" x1="560.58" y1="365.81" x2="565.42" y2="537.2">
   <stop offset="0" style="stop-opacity:1; stop-color:white"/>
   <stop offset="1" style="stop-opacity:0; stop-color:white"/>
  </linearGradient>
         <rect style="fill:url(#id10)" x="312.2" y="311.38" width="498.21" height="240.25"/>
        </mask>
        <mask id="id11">
  <linearGradient id="id12" gradientUnits="userSpaceOnUse" x1="560.58" y1="365.81" x2="565.42" y2="537.2">
   <stop offset="0" style="stop-opacity:1; stop-color:white"/>
   <stop offset="1" style="stop-opacity:0; stop-color:white"/>
  </linearGradient>
         <rect style="fill:url(#id12)" x="329.94" y="332.47" width="462.31" height="218.77"/>
        </mask>
        <mask id="id13">
  <linearGradient id="id14" gradientUnits="userSpaceOnUse" x1="560.58" y1="365.81" x2="565.42" y2="537.2">
   <stop offset="0" style="stop-opacity:1; stop-color:white"/>
   <stop offset="1" style="stop-opacity:0; stop-color:white"/>
  </linearGradient>
         <rect style="fill:url(#id14)" x="349.68" y="349.65" width="424.98" height="201.59"/>
        </mask>
 </defs>
 <g id="Layer_x0020_1">
  <metadata id="CorelCorpID_0Corel-Layer"/>
  <g id="_105553379058464">
   <circle class="fil0 str0" cx="560.2" cy="560.2" r="537.6"/>
   <g>
    <path class="fil1" d="M906.47 732.57c-14.09,19.5 -11.9,48.74 10.13,57.5 10.25,-7.67 12.51,-21.63 8.75,-33.55 -3.36,-10.63 -11.8,-21.29 -18.88,-23.95z"/>
    <path class="fil1" d="M944.5 758.98c19.27,26.14 48.94,5.08 53.32,-6.83 -7.36,-4.31 -17.23,-12.53 -30.58,-11.97 -13.07,0.55 -21.01,8.1 -22.74,18.8z"/>
    <path class="fil1" d="M921.7 793.42c3.12,10.37 11.47,18.37 24.99,17.73 12.93,-0.62 21.91,-8.42 28.78,-13.22 -6.02,-12.12 -35.5,-31.62 -53.77,-4.51z"/>
    <path class="fil1" d="M957.63 714.55c12.84,-25.47 2.53,-48 -16.73,-56.37 -6.34,7.83 -8.05,23.88 -5.4,35.25 2.68,11.48 10.7,18.89 22.13,21.12z"/>
    <path class="fil1" d="M963.62 721.86c22.46,15.9 44.02,-1.9 50.8,-20.82 -9.51,-2.31 -21.96,-7.77 -33.82,-3.78 -9.08,3.06 -18.2,13.21 -16.98,24.6z"/>
    <g>
     <path class="fil1" d="M971.27 668.66c15.5,-23.51 -7.86,-47.77 -28.4,-50.38 -1.54,25.58 0.97,49.22 28.4,50.38z"/>
     <path class="fil1" d="M929.25 457.09c3.8,18.11 25.81,40.61 49.2,23.5 -1.59,-23.14 -26.15,-35.96 -49.2,-23.5z"/>
     <path class="fil1" d="M880.1 353.76c5.82,18.32 43.38,30.1 52.83,6.08 -10.18,-21.36 -34.28,-23.75 -52.83,-6.08z"/>
     <path class="fil1" d="M1025.27 480.5c-39.23,7.71 -39.32,39.81 -33.75,45.78l2.56 1.66c2.43,0.97 2.51,0.67 5.18,0.49 2.91,-0.2 5.26,-1.12 8.11,-2.51 16.75,-8.16 17.97,-27.78 17.9,-45.42z"/>
     <path class="fil1" d="M914.71 420.62c1.46,9.68 11.65,18.65 19.72,22.8 14.21,7.32 21.65,0.38 31.24,-3.93 -2.84,-25.55 -26.58,-32.07 -50.96,-18.87z"/>
     <path class="fil1" d="M970.2 435.49c28.1,-3.27 31.59,-22.62 28.72,-51.27 -10.87,-0.19 -20.84,9.96 -25.68,16.17 -8.56,10.98 -6.31,22 -3.04,35.1z"/>
     <path class="fil1" d="M955.07 394.81c24.62,-0.2 32.8,-33.75 22.27,-53.23 -15.88,6.85 -38.16,28.11 -22.27,53.23z"/>
     <path class="fil1" d="M988.72 628.06c29.01,17.39 47.65,-17.52 46.76,-28.29 -12.01,-2.39 -24.05,-3.2 -34.17,2.87 -6.54,3.92 -13.79,13.58 -12.59,25.42z"/>
     <path class="fil1" d="M993.54 578.47c27.14,6.21 36.44,-19 38.33,-42.34 -22.91,0.69 -47.89,17.3 -38.33,42.34z"/>
     <path class="fil1" d="M983.95 478.71c26.9,1.32 34.14,-21.8 33.16,-47.43 -22.29,0.65 -41.75,20.93 -33.16,47.43z"/>
     <path class="fil1" d="M938.75 491.88c0.98,28.41 30.93,46.12 42.83,34.16 6.16,-6.19 1.38,-36.77 -42.83,-34.16z"/>
     <path class="fil1" d="M981.72 625.42c7.93,-28.28 -3.92,-44.75 -29.35,-51.46 -1.38,28.8 0.43,49.24 29.35,51.46z"/>
     <path class="fil1" d="M897.42 385.61c4.95,15.83 25.01,33.17 52.45,15.64 -1.08,-11.74 -8.92,-20.84 -19.55,-22.88 -13.41,-2.58 -22.79,4.08 -32.9,7.24z"/>
     <path class="fil1" d="M977.62 673.7c10.24,5.74 18.86,10.28 31.84,1.98 8.39,-5.37 16.14,-15.64 18.2,-25.81 -25.6,-6.71 -46.89,-2.26 -50.04,23.83z"/>
     <path class="fil1" d="M985.78 574.95c2.89,-28.69 -12.01,-41.36 -38.75,-43.03 1.64,26.75 10.3,45.66 38.75,43.03z"/>
     <path class="fil1" d="M937.03 357.7c23.19,-2.03 32.68,-33.84 20.07,-55.03 -18.3,9.36 -32.51,29.51 -20.07,55.03z"/>
     <path class="fil1" d="M897.68 306.05c10.06,-26.84 -8.09,-43.97 -32.44,-47.7 -0.31,12.7 1.2,25.84 6.55,34.86 4.37,7.39 16.85,12.76 25.89,12.84zm57.68 -24.27l-0.29 -8.83c-2.95,-1.68 -5.5,-2.94 -10.05,-4.19 1.84,3.43 2.12,4.91 4.26,7.76 0.38,0.51 1.47,1.8 1.91,2.23 2.21,2.16 1.51,1.23 4.17,3.03zm-87.63 53.32c8.17,10.85 -8.1,-4.35 2.17,2.7 5.58,3.83 -2.74,-0.66 4.17,2.2 3.49,1.45 2.17,0.06 7.11,2.7 16.4,-1.24 26.28,-3.51 28.38,-18.24 -0.28,-0.44 -0.72,-1.64 -0.87,-1.3l-1.85 -2.33c-9.39,-10.6 -5.39,-8.16 -20.29,-10.26l-2.46 0.12c-4.12,0.62 -6.43,0.97 -10.17,2.06 -2.43,0.7 -2.69,0.6 -4.5,1.49 -3.02,1.47 -2.48,1.48 -4.24,2.92 -6.07,4.26 -5.89,2.83 -9.3,8.8 6.71,4.94 4.83,5.69 11.85,9.14zm66.42 -56.05c-2.79,-6.8 -0.76,-10.08 -7.34,-9.17l-12.48 12.69c-8.38,11.74 -11.72,23.46 -4.25,36.09l4.06 6.02c11.9,-2.59 17.77,-8.75 20.56,-19.27 3.19,-4.2 4.08,-5.24 4.2,-12.41 0.04,-2.22 -0.33,-6.11 -1,-8.21 -2.87,-8.9 0.12,-2.33 -3.75,-5.74z"/>
    </g>
    <path class="fil1" d="M938.87 753.63c18.86,-19.18 2.77,-49.02 -17.1,-56.55 -4.67,24.18 -8.47,49.56 17.1,56.55z"/>
   </g>
   <g>
    <path class="fil1" d="M202.68 780.9c20.86,-8.42 23.65,-37.81 9.74,-55.29 -6.79,2.54 -15.78,13.6 -18.59,24.53 -5.07,19.7 7.55,30.03 7.68,29.77 0.17,-0.34 0.76,0.69 1.17,0.99z"/>
    <path class="fil1" d="M150.13 664.15c25.95,-1.31 28.88,-21.72 27.3,-48.39 -19.8,3.05 -42.07,25.32 -27.3,48.39z"/>
    <path class="fil1" d="M124.6 744.44c4.12,11.18 32.57,31.83 51.26,6.56 -1.71,-10.64 -10.17,-18.37 -23.77,-18.1 -11.03,0.22 -21.51,7.99 -27.49,11.54z"/>
    <path class="fil1" d="M134.21 624.68c-3.68,-24.76 -18.1,-32.29 -45.85,-26.73 -0.72,9.49 9.94,23.07 14.92,26.58 11.13,7.84 20.61,6.17 30.93,0.15z"/>
    <path class="fil1" d="M128.71 577.46c9.57,-24.59 -15.62,-40 -36.84,-40.71 1.66,22.4 10.69,46.72 36.84,40.71z"/>
    <path class="fil1" d="M108.67 695.3c5.97,16.9 29.38,38.83 49.43,18.69 -1.44,-11.1 -7.68,-18.91 -17.01,-22.23 -11.93,-4.24 -22.69,1.24 -32.42,3.54z"/>
    <path class="fil1" d="M163.24 708.3c10.88,-2.15 18.72,-9.32 21.29,-20.3 2.55,-10.92 0.87,-26.4 -5.21,-33.89 -18.35,8.21 -28.64,29.6 -16.08,54.19z"/>
    <path class="fil1" d="M140.07 622.57c24.95,-2.14 31.78,-20.34 28.07,-47.48 -9.08,-2.46 -21.99,9.05 -25.55,14.53 -6.29,9.69 -6.24,21.5 -2.52,32.95z"/>
    <path class="fil1" d="M197.79 784.11c-5.71,-8.5 -13.65,-15.21 -27.33,-12.58 -10.67,2.05 -20.88,9.9 -24.48,17 15.21,10.88 43.47,22.79 51.81,-4.42z"/>
    <path class="fil1" d="M95.93 646.09c1.89,9.43 8.67,18.58 16.43,23.94 13.31,9.19 20.82,3.97 31.63,-1.02 -3.01,-25.59 -22.94,-29.93 -48.06,-22.92z"/>
    <path class="fil1" d="M136.19 574.04c27.45,2.71 35.6,-15.84 37.36,-41.43 -25.94,1.74 -40.17,13.57 -37.36,41.43z"/>
    <path class="fil1" d="M181.27 745.89c24.4,-6.86 21.08,-31.06 16.43,-54.35 -19.58,7.14 -33.81,35.09 -16.43,54.35z"/>
    <g>
     <path class="fil1" d="M186.96 367.28c3.87,9.55 12.99,15.47 26.49,12.75 6.98,-1.41 15.18,-6.6 19.75,-11.43 5.08,-5.36 2.5,-0.72 4.55,-7.16 -17.58,-16.75 -40.9,-14.62 -50.79,5.84z"/>
     <path class="fil1" d="M181.4 494.22c-46.48,-2.82 -45.13,28.84 -41.17,32.85 11.33,11.5 40.21,-5.47 41.17,-32.85z"/>
     <path class="fil1" d="M165.7 400.9c15.31,-24.1 -6.17,-44.63 -21.41,-51.16 -10.58,17.25 -2.19,51.26 21.41,51.16z"/>
     <path class="fil1" d="M137.95 481.55c8.13,-25.03 -10.53,-44.99 -31.89,-45.56 -1.03,24.63 5.78,46.98 31.89,45.56z"/>
     <path class="fil1" d="M151.13 440.02c2.94,-11.3 5.05,-22.66 -2.05,-32.64 -4.7,-6.6 -15.12,-16.83 -25.57,-16.67 -2.49,27.57 0.56,46.19 27.62,49.31z"/>
     <path class="fil1" d="M170.69 407.14c7.25,4.48 17.18,11.25 30.6,5.59 7.99,-3.36 17.28,-12.37 19.81,-20.64 -5.15,-1.66 -46.92,-22.09 -50.41,15.05z"/>
     <path class="fil1" d="M143.2 484.89c11.66,3.11 20.06,7.44 31.97,-1.02 5.72,-4.07 13.45,-14.07 15.34,-23.09 -22.63,-12.18 -45.88,0.05 -47.31,24.11z"/>
     <path class="fil1" d="M222.92 322.89c-9,3.14 -10.41,5.53 -13.77,14.92 14.11,18.6 37.71,15.07 51.42,-3.64 -4.26,-7.97 -14.62,-11.59 -23.74,-13.75l-13.91 2.47z"/>
     <path class="fil1" d="M155.53 443.82c9.15,4.21 16.33,10.89 30.01,3.82 8.53,-4.4 16.59,-12.23 19.88,-22.7 -23.63,-7.15 -46.85,-9.52 -49.89,18.88z"/>
     <path class="fil1" d="M131.02 529.37c5.09,-28.28 -8.31,-41.23 -32.85,-46.13 0.33,27.11 4.89,46.28 32.85,46.13z"/>
     <path class="fil1" d="M183.02 365.18c12.17,-24.13 -1.6,-43.85 -19.27,-52.86 -13.16,20.26 -1.97,51.31 19.27,52.86z"/>
     <path class="fil1" d="M210.93 320.09c2.14,-7.23 2.64,-7.57 -0.49,-13.28l0.26 13.22 -10.86 -0.6c-1.11,-6.12 -0.84,-10.28 -0.87,-16.44 -0.05,-10.51 -0.78,-9.56 2.16,-14.07l-3.08 -2.81c-0.25,-0.22 -0.89,-0.8 -1.11,-1 -0.23,-0.21 -0.75,-0.69 -1.14,-1.02 -4.49,-4.3 -1.95,-2.56 -6.74,-4.68 -12.17,20.01 -6.57,49.38 15.57,53.75 3.68,-4.6 5.35,-5.84 6.3,-13.07z"/>
     <path class="fil1" d="M235.69 312.74c13.28,-8 16.91,-21.67 16.37,-43.03 -9.82,1.79 -18.94,4.77 -24.25,12.25l-1.82 -0.87c-4.16,7.42 -8.55,13.96 -8.19,26.37 6.16,-2.79 2.02,-3.81 8.26,-6.51 -0.72,14.59 -1.04,3.89 -7.01,14.75l16.64 -2.96z"/>
     <path class="fil2" d="M210.44 306.81c-1.05,-8 -4.93,-12.72 -9.31,-17.89 -2.94,4.51 -2.21,3.56 -2.16,14.07 0.03,6.16 -0.24,10.32 0.87,16.44l10.86 0.6 -0.26 -13.22z"/>
    </g>
    <path class="fil3" d="M206.58 580.54c5.68,3.48 2.69,-1.03 4.15,6.84 -4.92,-1.35 -7.67,-0.83 -4.15,-6.84zm-3.58 8.39l0 0z"/>
    <path class="fil4" d="M210.73 587.38c-1.46,-7.87 1.53,-3.36 -4.15,-6.84 -3.52,6.01 -0.77,5.49 4.15,6.84z"/>
   </g>
   <path class="fil5" d="M284.7 262.9c11.57,0.98 20.26,-0.7 26.23,-5.35 2.92,-2.27 4.8,-5.36 5.47,-8.95 0.67,-3.59 -0.19,-6.79 -2.37,-9.58 -1.68,-2.16 -4.02,-3.6 -6.93,-4.19 -2.94,-0.36 -7.44,-0.12 -13.31,0.99 -8.37,1.83 -15.64,2.19 -21.68,0.98 -6.04,-1.21 -11.35,-4.62 -15.8,-10.34 -5.64,-7.23 -7.75,-15.18 -6.53,-24.08 1.09,-8.81 5.94,-16.47 14.32,-23 5.71,-4.45 12.74,-7.47 21.33,-9.27l16.03 20.56c-9.52,-0.95 -16.93,0.54 -21.88,4.4 -2.41,1.88 -3.97,4.32 -4.69,7.33 -0.69,2.78 -0.19,5.25 1.49,7.4 1.68,2.16 3.82,3.35 6.31,3.65 2.71,0.34 6.66,-0.08 11.88,-1.5 8.75,-2.13 16.37,-2.56 22.54,-1.45 6.3,1.01 11.91,4.81 16.85,11.15 6.23,8 8.66,17.13 7.39,27.3 -1.38,10.26 -6.32,18.59 -14.57,25.02 -6.47,5.04 -14.81,8.48 -25.37,10.38l-16.71 -21.45z"/>
   <polygon id="1" class="fil5" points="333.09,135.03 356.27,124.58 373.67,163.16 392.16,154.82 374.75,116.24 398.08,105.71 443.14,205.62 419.82,216.14 400.96,174.33 382.47,182.67 401.34,224.48 378.16,234.93 "/>
   <path id="2" class="fil5" d="M477.38 86.64l25.14 -3.78 44.76 104.11 -27.53 4.13 -7.05 -20.91 -20.69 3.11 -0.75 22.08 -25.94 3.89 12.06 -112.63zm16.53 27.78l-1.31 38.93 13.69 -2.05 -12.38 -36.88z"/>
   <path id="3" class="fil5" d="M585.7 78.03l38.99 5.85c8.76,1.32 15.58,4.62 20.46,10.07 4.72,5.43 6.47,12.2 5.2,20.64 -1.03,6.84 -3.82,12.44 -8.52,16.62 -4.72,4.34 -11.02,7.3 -19.25,8.99 9.5,2.89 14.61,10 15.35,21.34l2.16 35.48 -27.69 -4.16 0.51 -30.52c-0.03,-5.21 -0.59,-9.04 -1.99,-11.69 -1.23,-2.62 -3.61,-4.12 -7.11,-4.64l-2.39 -0.36 -6.69 44.56 -25.3 -3.8 16.27 -108.38zm22.15 24.81l-3.49 23.23 5.57 0.84c3.98,0.6 7.01,-0.09 9.44,-2.16 2.43,-2.08 3.97,-4.78 4.5,-8.28 0.55,-3.66 0.02,-6.67 -1.47,-8.68 -1.48,-2.02 -4.2,-3.4 -7.86,-3.95l-6.69 -1z"/>
   <path id="4" class="fil5" d="M733.12 109.74c12.53,4.63 20.61,12.93 24.25,24.91 3.64,11.98 2.53,26.15 -3.49,42.46 -6.03,16.3 -14.44,27.95 -25.11,34.99 -10.87,7.14 -22.01,8.51 -33.63,4.22 -11.93,-4.4 -19.3,-12.78 -22.06,-25.3 -2.76,-12.51 -1.45,-26.27 4.12,-41.36 3.85,-10.42 8.97,-19.17 15.2,-26.3 6.24,-7.13 12.9,-11.71 20.41,-13.91 7.29,-2.11 14.12,-1.99 20.31,0.29zm-5.41 22.54c-4.83,-1.78 -9.46,-0.4 -14.09,4.23 -4.63,4.64 -8.68,11.9 -12.19,21.41 -3.62,9.81 -5.26,17.96 -4.9,24.43 0.5,6.54 2.82,10.48 7.2,12.1 4.38,1.61 8.91,0.03 13.59,-4.76 4.69,-4.79 8.89,-11.99 12.4,-21.5 3.68,-9.96 5.16,-18.17 4.55,-24.4 -0.62,-6.23 -2.79,-10.12 -6.56,-11.51z"/>
   <path id="5" class="fil5" d="M827.15 157.68l20.1 16.61 -12.59 34.69c-3.71,10.3 -7.12,18.97 -10.45,26.03l1.12 0.92 11.29 -14.68 27.38 -33.12 18.85 15.58 -69.81 84.48 -19.98 -16.5 12.47 -34.79c3.71,-10.3 7.34,-18.99 10.55,-26.15l-1.12 -0.93 -11.29 14.68 -27.48 33.25 -18.85 -15.58 69.81 -84.49z"/>
   <g>
    <path class="fil4" d="M560.2 237.91c178,0 322.29,144.3 322.29,322.29 0,178 -144.29,322.29 -322.29,322.29 -177.99,0 -322.29,-144.29 -322.29,-322.29 0,-177.99 144.3,-322.29 322.29,-322.29z"/>
    <g style="clip-path:url(#id0)">
     <g>
      <g>
       <path id="1" class="fil6" style="mask:url(#id1)" d="M561.51 238.91c177.71,0 321.78,139.4 321.78,311.35l-0.01 0.82 -20.5 0 0.01 -0.82c0,-161 -134.89,-291.52 -301.28,-291.52 -166.39,0 -301.28,130.52 -301.28,291.52l0.01 0.82 -20.5 0 -0.01 -0.82c0,-171.95 144.07,-311.35 321.78,-311.35z"/>
       <path class="fil7" style="mask:url(#id3)" d="M561.51 258.33c166.63,0 301.71,130.7 301.71,291.93l-15.38 0c-0.96,-151.44 -128.12,-273.93 -284.86,-273.93 -156.74,0 -283.9,122.49 -284.86,273.93l-18.31 0c0,-161.23 135.07,-291.93 301.7,-291.93z"/>
       <path class="fil8" style="mask:url(#id5)" d="M562.98 276.33c157.05,0 284.4,122.96 284.87,274.81l-19.3 0c-1.51,-142.45 -120.33,-257.48 -266.71,-257.48 -146.39,0 -265.21,115.03 -266.72,257.48l-17.01 0c0.47,-151.85 127.83,-274.81 284.87,-274.81z"/>
       <path class="fil9" style="mask:url(#id7)" d="M561.84 293.66c146.53,0 265.45,115.26 266.71,257.91l-18.14 0c-1.56,-132.91 -112.48,-240.19 -249.11,-240.19 -136.63,0 -247.54,107.28 -249.1,240.19l-17.08 0c1.26,-142.65 120.18,-257.91 266.72,-257.91z"/>
       <path class="fil10" style="mask:url(#id9)" d="M561.3 311.38c136.65,0 247.58,107.31 249.11,240.25l-18.15 0c-3.5,-121.62 -105.65,-219.16 -231.17,-219.16 -125.52,0 -227.67,97.54 -231.17,219.16l-17.72 0c1.53,-132.94 112.46,-240.25 249.1,-240.25z"/>
       <path class="fil11" style="mask:url(#id11)" d="M561.09 332.47c125.39,0 227.46,97.34 231.16,218.77l-17.59 0c-3.14,-111.85 -97.07,-201.59 -212.49,-201.59 -115.42,0 -209.36,89.74 -212.49,201.59l-19.74 0c3.7,-121.43 105.76,-218.77 231.15,-218.77z"/>
       <path class="fil12" style="mask:url(#id13)" d="M562.17 349.65c115.42,0 209.35,89.74 212.49,201.59l-17.34 0c-3.79,-101.83 -89.59,-183.25 -194.9,-183.25 -105.31,0 -191.12,81.42 -194.9,183.25l-17.84 0c3.13,-111.85 97.07,-201.59 212.49,-201.59z"/>
      </g>
     </g>
    </g>
    <path class="fil13" d="M560.2 237.91c178,0 322.29,144.3 322.29,322.29 0,178 -144.29,322.29 -322.29,322.29 -177.99,0 -322.29,-144.29 -322.29,-322.29 0,-177.99 144.3,-322.29 322.29,-322.29z"/>
    <g>
     <path class="fil0" d="M794.39 674.53c4.87,-11.85 -14.83,-7.49 -23.49,-6.01 -9.97,1.71 -17.85,5.62 -26.9,8.68 -18.79,6.34 -43.29,6.04 -61.51,-0.7 -67.18,-24.85 -78.29,4.15 -118.43,5.21 -31.04,0.82 -36.31,-8.1 -58.03,-12.74 -55.11,-11.79 -71.25,23.23 -122.91,10.06 -6.39,-1.63 -53.61,-20.47 -57.47,-9.62 -2.87,8.05 10.19,4.54 26.06,8.1 9.4,2.12 17.46,6.33 26.55,8.96 52.02,15.04 72.89,-17.73 121.19,-10.18 25.69,4.02 43.75,21.3 89.06,10.24 9.01,-2.21 16.93,-6.73 26.51,-9 51.25,-12.11 67.12,21.65 121.58,10.49 9.41,-1.93 17.84,-5.83 26.7,-8.94 10.86,-3.81 20.69,-2.37 31.09,-4.55z"/>
     <path class="fil0" d="M408.9 719.12c11.28,2.63 29.72,-3.99 38.93,-7.5 29.48,-11.24 50.56,-7.56 78.03,2.54 7.73,2.84 17.37,5.95 26.1,4.62 1.96,-0.29 -0.69,-0.38 1.1,-0.05l1.53 0.55c21.41,5.45 55.9,-15.44 87.57,-14.24 26.58,1.02 33.38,10.81 56.7,13.86 7.25,0.94 17.18,3.15 13.64,-6.52 -4.42,-1.61 -14,-1.63 -20.2,-3.18 -12.39,-3.09 -13.33,-6.05 -15.13,-2.13 -0.31,-4.13 -1.25,-3.49 -5.57,-4.98 -8.86,-3.06 -15.38,-4.44 -25.07,-5.09 -38.54,-2.57 -45.68,9.07 -68.41,13.1 -11.14,1.98 -25.51,1.99 -36.6,-0.23 -23.78,-4.76 -29.55,-15.52 -67.69,-12.89 -22.09,1.53 -29.76,8.98 -47.9,12.74 -5.86,1.22 -12.6,1.12 -17.58,2.39 -1.39,3.49 -1.23,4.04 0.55,7.01z"/>
     <path class="fil0" d="M751.48 704.38c-2.55,0.84 -12.02,3.74 -13.75,4.72 -5.12,2.87 -2.8,8.99 4.67,7.34 22.42,-4.97 16.71,-14.59 9.08,-12.06z"/>
     <path class="fil0" d="M370.23 713.6c3.03,1.15 10.86,4.49 13.73,2.72 2.41,-1.49 2.31,-4.47 0.52,-6.44 -0.8,-0.88 -14.51,-6.18 -19.27,-5.27 -2.94,6.03 -1.04,6.7 5.02,8.99z"/>
    </g>
    <g>
     <path class="fil0" d="M578.88 460.02c-3.32,28.07 1.64,86.18 -1.21,96.76 -1.24,4.62 -0.56,3.68 0.39,7.39 1.46,5.67 0.22,55.41 0.61,65.41 3.57,-3.48 5.87,-8.96 15.02,-18.15 12.03,-12.07 26.26,-19.76 44.45,-22.54 13.05,-1.99 22.2,1.06 32.25,0.26l4.19 -141.22c-27.38,-16.72 -76.53,-2.96 -95.7,12.09z"/>
     <path class="fil0" d="M472.03 447.91l3.91 141.25c9.6,0.73 18.77,-2.14 31.18,-0.43 40.52,5.58 51.35,31.96 60.58,40.85l0.13 -169.57c-25.59,-19.48 -74.23,-25.79 -95.8,-12.1z"/>
     <path class="fil0" d="M438.88 492.83c-0.33,19.79 5.37,76.95 7.27,103.24 1.83,25.31 -0.59,26.02 7.86,23.92 21.21,-5.26 44.47,-5.76 65.03,0.57 15.95,4.9 35.96,17.78 43.35,27.76 -1.45,-18.23 -20.65,-35.37 -32.83,-42.11 -26.5,-14.67 -43.78,-6.81 -63.27,-4.8l-3.38 -114.09c-6.51,-0.84 -17.45,4.1 -24.03,5.51z"/>
     <path class="fil0" d="M707.49 492.81c-6.5,-1.34 -17.67,-6.3 -24.03,-5.5l-3.38 114.11c-13.22,-1.35 -19.39,-4.97 -34.73,-3.72 -28.92,2.35 -59.46,26.14 -61.38,50.62 9.86,-11.6 27,-23.17 46.34,-28.59 26.62,-7.44 42.89,-2.63 68.06,1.35l9.12 -128.27z"/>
    </g>
    <path class="fil14" d="M387.81 795.78c4.98,4.59 9.57,6.94 13.98,6.94 2.16,0 4.13,-0.75 5.72,-2.16 1.6,-1.41 2.35,-3.19 2.35,-5.25 0,-1.6 -0.56,-3.1 -1.69,-4.41 -1.22,-1.22 -3.38,-2.72 -6.47,-4.32 -4.5,-2.16 -7.98,-4.59 -10.32,-7.31 -2.35,-2.72 -3.57,-6.2 -3.57,-10.42 0,-5.34 1.88,-9.75 5.63,-13.41 3.66,-3.66 8.63,-5.44 14.82,-5.44 4.23,0 8.54,1.12 13.14,3.38l0 15.19c-4.04,-3.84 -7.98,-5.81 -11.64,-5.81 -1.78,0 -3.37,0.56 -4.78,1.68 -1.31,1.04 -1.97,2.35 -1.97,3.94 0,1.6 0.56,2.91 1.6,3.94 1.12,1.13 3.09,2.35 6,3.57 4.78,2.16 8.44,4.69 10.88,7.41 2.53,2.72 3.75,6.47 3.75,11.16 0,5.91 -2.16,10.98 -6.38,15.2 -4.31,4.22 -9.56,6.28 -15.66,6.28 -4.79,0 -9.85,-1.4 -15.39,-4.31l0 -15.85z"/>
    <path id="1" class="fil14" d="M439.92 751.03l22.79 0c5.91,0 10.41,1.6 13.7,4.69 3.28,3.19 4.87,7.69 4.87,13.51 0,3 -0.56,6 -1.59,9.1 -1.03,3 -3.28,5.63 -6.75,7.88 -3.48,2.25 -7.79,3.37 -12.95,3.37l-5.06 0 0 25.33 -15.01 0 0 -63.88zm15.01 12.29l0 13.69 3.28 0c2.44,0 4.41,-0.65 5.91,-1.87 1.4,-1.22 2.16,-3 2.16,-5.35 0,-2.16 -0.57,-3.85 -1.69,-4.88 -1.13,-1.03 -2.82,-1.59 -5.07,-1.59l-4.59 0z"/>
    <path id="2" class="fil14" d="M494.9 751.03l22.98 0c5.16,0 9.38,1.31 12.66,4.03 3.19,2.72 4.78,6.48 4.78,11.45 0,4.03 -1.12,7.5 -3.47,10.32 -2.34,2.9 -5.72,5.16 -10.31,6.84 5.72,0.85 9.28,4.51 10.69,10.98l4.31 20.26 -16.32 0 -2.34 -17.63c-0.47,-3.01 -1.13,-5.16 -2.16,-6.57 -0.94,-1.41 -2.44,-2.06 -4.5,-2.06l-1.41 0 0 26.26 -14.91 0 0 -63.88zm14.91 12.38l0 13.7 3.28 0c2.35,0 4.04,-0.66 5.26,-2.07 1.22,-1.4 1.87,-3.09 1.87,-5.16 0,-2.15 -0.56,-3.84 -1.59,-4.87 -1.03,-1.03 -2.72,-1.6 -4.88,-1.6l-3.94 0z"/>
    <polygon id="3" class="fil14" points="550.53,751.03 565.54,751.03 565.54,814.91 550.53,814.91 "/>
    <path id="4" class="fil14" d="M582.64 751.03l15.19 0 7.23 20.26c2.15,6.01 3.84,11.16 4.97,15.57l0.84 0 -0.37 -10.78 0 -25.05 14.26 0 0 63.88 -15.11 0 -7.31 -20.26c-2.16,-6 -3.76,-11.26 -4.98,-15.67l-0.84 0 0.38 10.79 0 25.14 -14.26 0 0 -63.88z"/>
    <path id="5" class="fil14" d="M669.37 810.13c-1.41,1.87 -3,3.28 -4.69,4.31 -1.69,1.03 -3.47,1.5 -5.35,1.5 -3.66,0 -7.03,-1.4 -10.13,-4.22 -3.19,-2.91 -5.53,-6.94 -7.04,-12.1 -1.5,-5.25 -2.25,-10.79 -2.25,-16.6 0,-9.85 2.16,-17.82 6.57,-23.92 4.41,-6.1 10.32,-9.1 17.82,-9.1 4.97,0 9.38,1.22 13.42,3.75l0 14.17c-3.76,-3.19 -7.23,-4.79 -10.51,-4.79 -4.13,0 -7.22,1.88 -9.29,5.54 -2.06,3.65 -3.09,8.72 -3.09,15.1 0,5.91 0.75,10.69 2.16,14.16 1.4,3.47 3.28,5.26 5.62,5.26 1.22,0 2.16,-0.57 2.72,-1.79 0.66,-1.22 0.94,-3 0.94,-5.34l0 -4.04 -4.97 0 0 -11.53 18.86 0 0 34.42 -7.32 0 -3.47 -4.78z"/>
    <path id="6" class="fil14" d="M695.17 795.78c4.97,4.59 9.57,6.94 13.98,6.94 2.16,0 4.13,-0.75 5.72,-2.16 1.6,-1.41 2.35,-3.19 2.35,-5.25 0,-1.6 -0.57,-3.1 -1.69,-4.41 -1.22,-1.22 -3.38,-2.72 -6.47,-4.32 -4.51,-2.16 -7.98,-4.59 -10.32,-7.31 -2.35,-2.72 -3.57,-6.2 -3.57,-10.42 0,-5.34 1.88,-9.75 5.63,-13.41 3.66,-3.66 8.63,-5.44 14.82,-5.44 4.22,0 8.54,1.12 13.14,3.38l0 15.19c-4.04,-3.84 -7.98,-5.81 -11.64,-5.81 -1.78,0 -3.37,0.56 -4.78,1.68 -1.31,1.04 -1.97,2.35 -1.97,3.94 0,1.6 0.56,2.91 1.6,3.94 1.12,1.13 3.09,2.35 6,3.57 4.78,2.16 8.44,4.69 10.88,7.41 2.53,2.72 3.75,6.47 3.75,11.16 0,5.91 -2.16,10.98 -6.38,15.2 -4.31,4.22 -9.57,6.28 -15.66,6.28 -4.79,0 -9.85,-1.4 -15.39,-4.31l0 -15.85z"/>
   </g>
   <path class="fil5" d="M269.92 807.71l13.13 13.62 -11.87 24.07c-3.52,7.16 -6.76,13.15 -9.7,18l0.67 0.7 9.39 -9.68 22.5 -21.69 12.37 12.83 -57.36 55.31 -13.09 -13.57 11.87 -24.07c3.52,-7.16 6.77,-13.17 9.74,-18.04l-0.71 -0.74 -9.4 9.69 -22.53 21.72 -12.37 -12.83 57.36 -55.32zm36.09 37.13l14.57 11.41 -32.55 41.55c-2.59,3.3 -4.06,6.13 -4.45,8.53 -0.41,2.38 0.32,4.29 2.15,5.72 1.92,1.5 3.94,1.87 6.08,1.1 2.12,-0.79 4.38,-2.69 6.75,-5.71l33.22 -42.41 14.66 11.48 -33.86 43.23c-5.11,6.52 -10.86,10.16 -17.24,10.94 -6.37,0.76 -12.81,-1.42 -19.32,-6.52 -6.29,-4.93 -9.84,-10.48 -10.65,-16.66 -0.78,-6.19 1.48,-12.67 6.78,-19.44l33.86 -43.22zm39.02 30.81l24.86 14.2c5.62,3.21 9.34,7.27 11.17,12.17 1.82,4.9 1.2,10.03 -1.85,15.38 -2.52,4.41 -5.91,7.43 -10.16,9.11 -4.28,1.67 -9.42,1.97 -15.43,0.89 5.68,4.57 7.3,10.74 4.82,18.54l-7.85 24.66 -17.65 -10.08 8.36 -20.62c1.39,-3.5 1.96,-6.31 1.73,-8.42 -0.21,-2.1 -1.43,-3.78 -3.65,-5.05l-1.49 -0.85 -16.26 28.48 -16.12 -9.21 39.52 -69.2zm8.44 22.65l-8.47 14.83 3.52 2.02c2.52,1.44 4.86,1.78 7.03,1.05 2.17,-0.74 3.91,-2.24 5.21,-4.52 1.33,-2.32 1.74,-4.38 1.23,-6.2 -0.48,-1.83 -1.9,-3.4 -4.25,-4.74l-4.27 -2.44zm58.83 11.2l10.65 4.88 -61.57 71.39 -10.49 -4.81 61.41 -71.46zm11.81 7.88l27.27 7.89c7.06,2.05 11.98,5.52 14.76,10.43 2.78,4.92 3.16,10.84 1.15,17.79 -1.05,3.61 -2.74,7.06 -5.07,10.34 -2.35,3.26 -5.96,5.65 -10.84,7.16 -4.9,1.48 -10.46,1.33 -16.67,-0.47l-6.04 -1.74 -8.78 30.34 -17.94 -5.19 22.16 -76.55zm13.67 19.95l-4.75 16.41 3.95 1.14c2.92,0.85 5.46,0.77 7.64,-0.24 2.18,-1.01 3.66,-2.9 4.46,-5.65 0.76,-2.61 0.64,-4.73 -0.32,-6.39 -0.96,-1.68 -2.76,-2.89 -5.44,-3.66l-5.54 -1.61zm33.77 -5.95l28.22 4.78c6.39,1.08 11.28,3.61 14.68,7.59 3.4,3.98 4.58,9 3.55,15.08 -0.85,5 -2.99,9.01 -6.41,12.04 -3.44,3.04 -8.16,5.09 -14.17,6.15 6.9,2.33 10.54,7.58 10.89,15.75l1.12 25.86 -20.06 -3.4 0.77 -22.24c0.1,-3.76 -0.33,-6.6 -1.27,-8.5 -0.92,-1.9 -2.64,-3.06 -5.16,-3.49l-1.69 -0.29 -5.49 32.34 -18.3 -3.1 13.32 -78.57zm15.72 18.36l-2.86 16.84 4 0.68c2.86,0.49 5.18,0.01 6.97,-1.43 1.78,-1.44 2.89,-3.44 3.33,-6.04 0.45,-2.63 0.13,-4.7 -0.98,-6.24 -1.08,-1.54 -2.95,-2.53 -5.62,-2.99l-4.84 -0.82zm28.18 -9.56l20.97 0.35 6.36 25.37 7.12 -25.14 21.25 0.36 -19.52 42.87 -0.62 36.49 -18.62 -0.31 0.62 -36.5 -17.56 -43.49zm86.17 55.01c6.85,4.84 12.98,6.9 18.37,6.17 2.76,-0.38 5,-1.59 6.71,-3.63 1.73,-2.04 2.42,-4.32 2.08,-6.85 -0.28,-2.03 -1.22,-3.75 -2.84,-5.15 -1.65,-1.39 -4.58,-2.8 -8.77,-4.24 -5.91,-1.95 -10.55,-4.41 -13.91,-7.38 -3.41,-2.96 -5.46,-7.03 -6.16,-12.19 -0.89,-6.57 0.66,-12.43 4.67,-17.56 3.98,-5.12 9.77,-8.21 17.36,-9.24 5.2,-0.7 10.82,-0.05 16.82,1.97l2.55 18.86c-5.63,-4.12 -10.73,-5.87 -15.29,-5.25 -2.26,0.31 -4.14,1.25 -5.62,2.83 -1.47,1.6 -2.08,3.35 -1.82,5.27 0.26,1.89 1.15,3.42 2.71,4.59 1.5,1.19 4.15,2.33 7.94,3.43 6.29,1.84 11.18,4.24 14.72,7.23 3.51,3.01 5.66,7.41 6.45,13.23 1,7.32 -0.78,13.94 -5.36,19.82 -4.55,5.87 -10.62,9.33 -18.21,10.36 -5.9,0.8 -12.47,-0.12 -19.75,-2.74l-2.65 -19.53zm101.84 0.9c-3.83,3.36 -7.72,5.63 -11.71,6.78 -8.6,2.49 -16.54,0.73 -23.79,-5.29 -7.25,-6.04 -12.49,-14.63 -15.72,-25.78 -1.99,-6.87 -2.79,-13.7 -2.4,-20.48 0.4,-6.77 2.35,-12.65 5.87,-17.67 3.5,-4.99 8.2,-8.34 14.1,-10.05 3.61,-1.05 7.78,-1.24 12.49,-0.59l5.07 17.51c-3.73,-2.03 -7.25,-2.55 -10.57,-1.59 -4.13,1.2 -6.79,4.22 -7.98,9.09 -1.19,4.87 -0.64,11.25 1.65,19.15 1.96,6.77 4.73,11.85 8.31,15.24 3.57,3.37 7.33,4.49 11.28,3.35 2.88,-0.83 5.69,-3.13 8.42,-6.88l4.98 17.21zm-16.95 -74.94l16.81 -7.59 12.68 28.06 13.43 -6.07 -12.67 -28.06 16.97 -7.67 32.8 72.63 -16.97 7.67 -13.73 -30.41 -13.44 6.07 13.74 30.4 -16.81 7.6 -32.81 -72.63zm67.84 -34.7c8.08,-5.23 16.44,-6.32 25.06,-3.24 8.61,3.09 16.36,9.92 23.22,20.51 6.87,10.6 9.99,20.59 9.38,29.95 -0.61,9.34 -4.66,16.45 -12.14,21.29 -7.77,5.03 -15.9,5.65 -24.39,1.86 -8.49,-3.82 -15.91,-10.61 -22.24,-20.38 -4.38,-6.77 -7.29,-13.53 -8.7,-20.26 -1.41,-6.73 -1.15,-12.71 0.77,-17.93 1.94,-5.22 4.95,-9.15 9.04,-11.8zm10.81 13.01c-3.13,2.02 -4.37,5.38 -3.69,10.08 0.69,4.68 3.04,10.15 7.1,16.42 4.12,6.37 8.16,10.84 12.13,13.42 3.96,2.57 7.37,2.95 10.2,1.11 2.81,-1.82 3.86,-5.15 3.15,-9.98 -0.74,-4.84 -3.11,-10.37 -7.15,-16.61 -4.19,-6.46 -8.25,-10.87 -12.22,-13.23 -3.96,-2.35 -7.13,-2.76 -9.52,-1.21zm37.67 -47.37c7.3,-6.28 15.43,-8.48 24.38,-6.6 8.96,1.9 17.56,7.62 25.78,17.18 8.24,9.58 12.69,19.06 13.35,28.41 0.65,9.35 -2.39,16.93 -9.15,22.74 -7.02,6.04 -14.99,7.75 -23.92,5.14 -8.93,-2.64 -17.19,-8.36 -24.78,-17.19 -5.27,-6.12 -9.06,-12.42 -11.37,-18.9 -2.3,-6.48 -2.85,-12.44 -1.65,-17.86 1.21,-5.44 3.66,-9.74 7.36,-12.92zm12.47 11.42c-2.83,2.43 -3.6,5.93 -2.3,10.49 1.31,4.55 4.39,9.65 9.26,15.31 4.94,5.75 9.55,9.64 13.83,11.66 4.27,2.01 7.7,1.93 10.25,-0.27 2.55,-2.19 3.14,-5.63 1.78,-10.32 -1.39,-4.7 -4.49,-9.85 -9.33,-15.49 -5.02,-5.84 -9.65,-9.66 -13.89,-11.46 -4.25,-1.79 -7.45,-1.77 -9.6,0.08zm11.7 -31.44l12.8 -13.52 46.06 43.59 17.58 -18.59 11.83 11.2 -30.39 32.1 -57.88 -54.78z"/>
  </g>
 </g>
</svg>
